<mxfile host="Electron" modified="2023-04-24T07:43:47.807Z" agent="Mozilla/5.0 (X11; Linux x86_64) AppleWebKit/537.36 (KHTML, like Gecko) draw.io/21.1.2 Chrome/106.0.5249.199 Electron/21.4.3 Safari/537.36" etag="CHXEYFx6LrlQH-xN1eDY" version="21.1.2" type="device" pages="2">
  <diagram id="jfVx9m50EOC27h1-yVGB" name="Overview">
    <mxGraphModel dx="2234" dy="876" grid="0" gridSize="10" guides="1" tooltips="1" connect="1" arrows="1" fold="1" page="0" pageScale="1" pageWidth="827" pageHeight="1169" math="0" shadow="0">
      <root>
        <mxCell id="0" />
        <mxCell id="1" parent="0" />
        <mxCell id="wiiBV4j6o2-u9heiSNuH-1" value="pad:DocInfo" style="swimlane;fontFamily=Helvetica;fontSize=12;rounded=1;gradientColor=none;swimlaneFillColor=#FFFFCC;opacity=50;" parent="1" vertex="1">
          <mxGeometry x="-440" y="20" width="960" height="460" as="geometry">
            <mxRectangle y="60" width="110" height="30" as="alternateBounds" />
          </mxGeometry>
        </mxCell>
        <mxCell id="wiiBV4j6o2-u9heiSNuH-2" value="pad:PAD" style="graphMlID=n4;shape=rect;rounded=1;arcsize=30;fillColor=#ffff00;strokeColor=#000000;strokeWidth=1.0;fontSize=12;fontFamily=Helvetica;horizontal=1;verticalAlign=middle;" parent="wiiBV4j6o2-u9heiSNuH-1" vertex="1">
          <mxGeometry x="40" y="110" width="119" height="40" as="geometry" />
        </mxCell>
        <mxCell id="wiiBV4j6o2-u9heiSNuH-3" value="" style="graphMlID=e0;rounded=0;endArrow=block;strokeColor=#000080;strokeWidth=1.0;startArrow=oval;startFill=1;endFill=1;fontSize=12;fontFamily=Helvetica;horizontal=1;verticalAlign=middle;edgeStyle=orthogonalEdgeStyle;" parent="wiiBV4j6o2-u9heiSNuH-1" source="wiiBV4j6o2-u9heiSNuH-2" target="wiiBV4j6o2-u9heiSNuH-5" edge="1">
          <mxGeometry relative="1" as="geometry">
            <mxPoint x="409" y="490" as="sourcePoint" />
            <mxPoint x="280" y="97" as="targetPoint" />
            <Array as="points">
              <mxPoint x="260" y="130" />
              <mxPoint x="260" y="130" />
            </Array>
          </mxGeometry>
        </mxCell>
        <mxCell id="wiiBV4j6o2-u9heiSNuH-4" value="&lt;span style=&quot;color: rgb(0, 0, 128); font-size: 12px; background-color: rgb(248, 249, 250);&quot;&gt;pad:hasProvenance&lt;/span&gt;" style="text;html=1;align=center;verticalAlign=middle;resizable=0;points=[];labelBackgroundColor=#ffffff;fontSize=12;fontFamily=Helvetica;horizontal=1;" parent="wiiBV4j6o2-u9heiSNuH-3" vertex="1" connectable="0">
          <mxGeometry x="-0.0174" y="2" relative="1" as="geometry">
            <mxPoint x="-1" y="2" as="offset" />
          </mxGeometry>
        </mxCell>
        <mxCell id="wiiBV4j6o2-u9heiSNuH-5" value="pad:Provenance" style="swimlane;fontFamily=Helvetica;fontSize=12;rounded=1;gradientColor=none;swimlaneFillColor=#FFE6CC;opacity=50;" parent="wiiBV4j6o2-u9heiSNuH-1" vertex="1">
          <mxGeometry x="320" y="60" width="600" height="360" as="geometry">
            <mxRectangle y="60" width="110" height="30" as="alternateBounds" />
          </mxGeometry>
        </mxCell>
        <mxCell id="wiiBV4j6o2-u9heiSNuH-8" value="pad:Assertion" style="swimlane;fontFamily=Helvetica;fontSize=12;rounded=1;gradientColor=none;swimlaneFillColor=#CCE5FF;opacity=50;" parent="wiiBV4j6o2-u9heiSNuH-5" vertex="1">
          <mxGeometry x="40" y="160" width="520" height="160" as="geometry">
            <mxRectangle x="80" y="180" width="110" height="30" as="alternateBounds" />
          </mxGeometry>
        </mxCell>
        <mxCell id="wiiBV4j6o2-u9heiSNuH-9" value="scpo:Platform" style="graphMlID=n4;shape=rect;rounded=1;arcsize=30;fillColor=#ffff00;strokeColor=#000000;strokeWidth=1.0;fontFamily=Helvetica;fontSize=12;" parent="wiiBV4j6o2-u9heiSNuH-8" vertex="1">
          <mxGeometry x="40" y="70" width="120" height="40" as="geometry" />
        </mxCell>
        <mxCell id="wiiBV4j6o2-u9heiSNuH-10" value="xsd:Literal" style="graphMlID=n6;shape=parallelogram;fillColor=#ccffcc;strokeColor=#000000;strokeWidth=1.0;fontFamily=Helvetica;fontSize=12;" parent="wiiBV4j6o2-u9heiSNuH-8" vertex="1">
          <mxGeometry x="360" y="70" width="120" height="40" as="geometry" />
        </mxCell>
        <mxCell id="wiiBV4j6o2-u9heiSNuH-11" value="" style="graphMlID=e2;rounded=0;endArrow=block;strokeColor=#008000;strokeWidth=1.0;startArrow=oval;startFill=0;endFill=0;fontFamily=Helvetica;fontSize=12;fontColor=#97D077;" parent="wiiBV4j6o2-u9heiSNuH-8" source="wiiBV4j6o2-u9heiSNuH-9" target="wiiBV4j6o2-u9heiSNuH-10" edge="1">
          <mxGeometry relative="1" as="geometry">
            <mxPoint x="210" y="330" as="sourcePoint" />
            <mxPoint x="486.8107910156248" y="330.18034262995354" as="targetPoint" />
          </mxGeometry>
        </mxCell>
        <mxCell id="wiiBV4j6o2-u9heiSNuH-12" value="&lt;span style=&quot;color: rgb(0, 128, 0); font-size: 12px; background-color: rgb(248, 249, 250);&quot;&gt;dcterms:identifier&lt;/span&gt;" style="text;html=1;align=center;verticalAlign=middle;resizable=0;points=[];labelBackgroundColor=#ffffff;fontFamily=Helvetica;fontSize=12;fontColor=#97D077;" parent="wiiBV4j6o2-u9heiSNuH-11" vertex="1" connectable="0">
          <mxGeometry x="-0.0896" y="3" relative="1" as="geometry">
            <mxPoint as="offset" />
          </mxGeometry>
        </mxCell>
        <mxCell id="wiiBV4j6o2-u9heiSNuH-6" value="xsd:DateTime" style="graphMlID=n6;shape=parallelogram;fillColor=#ccffcc;strokeColor=#000000;strokeWidth=1.0;fontSize=12;fontFamily=Helvetica;horizontal=1;verticalAlign=middle;" parent="wiiBV4j6o2-u9heiSNuH-5" vertex="1">
          <mxGeometry x="240" y="50" width="120" height="40" as="geometry" />
        </mxCell>
        <mxCell id="wiiBV4j6o2-u9heiSNuH-7" value="xsd:IRI" style="graphMlID=n6;shape=parallelogram;fillColor=#ccffcc;strokeColor=#000000;strokeWidth=1.0;fontSize=12;fontFamily=Helvetica;horizontal=1;verticalAlign=middle;" parent="wiiBV4j6o2-u9heiSNuH-5" vertex="1">
          <mxGeometry x="40" y="50" width="120" height="40" as="geometry" />
        </mxCell>
        <mxCell id="wiiBV4j6o2-u9heiSNuH-13" value="" style="graphMlID=e2;rounded=0;endArrow=block;strokeColor=#008000;strokeWidth=1.0;startArrow=oval;startFill=0;endFill=0;fontFamily=Helvetica;fontSize=12;" parent="wiiBV4j6o2-u9heiSNuH-5" source="wiiBV4j6o2-u9heiSNuH-8" target="wiiBV4j6o2-u9heiSNuH-7" edge="1">
          <mxGeometry relative="1" as="geometry">
            <mxPoint x="280" y="380" as="sourcePoint" />
            <mxPoint x="697.8107910156248" y="110.18034262995354" as="targetPoint" />
          </mxGeometry>
        </mxCell>
        <mxCell id="wiiBV4j6o2-u9heiSNuH-14" value="&lt;font color=&quot;#008000&quot; style=&quot;font-size: 12px;&quot;&gt;&lt;span style=&quot;font-size: 12px;&quot;&gt;dcterms:license&lt;/span&gt;&lt;/font&gt;" style="text;html=1;align=center;verticalAlign=middle;resizable=0;points=[];labelBackgroundColor=default;fontFamily=Helvetica;fontSize=12;" parent="wiiBV4j6o2-u9heiSNuH-13" vertex="1" connectable="0">
          <mxGeometry x="-0.0896" y="3" relative="1" as="geometry">
            <mxPoint x="-4" y="-11" as="offset" />
          </mxGeometry>
        </mxCell>
        <mxCell id="wiiBV4j6o2-u9heiSNuH-15" value="" style="graphMlID=e2;rounded=0;endArrow=block;strokeColor=#008000;strokeWidth=1.0;startArrow=oval;startFill=0;endFill=0;fontFamily=Helvetica;fontSize=12;" parent="wiiBV4j6o2-u9heiSNuH-5" source="wiiBV4j6o2-u9heiSNuH-8" target="wiiBV4j6o2-u9heiSNuH-6" edge="1">
          <mxGeometry relative="1" as="geometry">
            <mxPoint x="240" y="310" as="sourcePoint" />
            <mxPoint x="516.8107910156248" y="310.18034262995354" as="targetPoint" />
          </mxGeometry>
        </mxCell>
        <mxCell id="wiiBV4j6o2-u9heiSNuH-16" value="dcterms:Agent" style="graphMlID=n4;shape=rect;rounded=1;arcsize=30;fillColor=#ffff00;strokeColor=#000000;strokeWidth=1.0;fontSize=12;fontFamily=Helvetica;horizontal=1;verticalAlign=middle;" parent="wiiBV4j6o2-u9heiSNuH-5" vertex="1">
          <mxGeometry x="440" y="50" width="120" height="40" as="geometry" />
        </mxCell>
        <mxCell id="wiiBV4j6o2-u9heiSNuH-17" value="" style="graphMlID=e0;rounded=0;endArrow=block;strokeColor=#000080;strokeWidth=1.0;startArrow=oval;startFill=1;endFill=1;fontSize=12;fontFamily=Helvetica;horizontal=1;verticalAlign=middle;" parent="wiiBV4j6o2-u9heiSNuH-5" source="wiiBV4j6o2-u9heiSNuH-8" target="wiiBV4j6o2-u9heiSNuH-16" edge="1">
          <mxGeometry relative="1" as="geometry">
            <mxPoint x="180" y="174.66666666666674" as="sourcePoint" />
            <mxPoint x="511" y="308" as="targetPoint" />
          </mxGeometry>
        </mxCell>
        <mxCell id="wiiBV4j6o2-u9heiSNuH-18" value="&lt;font style=&quot;font-size: 12px;&quot;&gt;dcterms:creator&lt;/font&gt;" style="text;html=1;align=center;verticalAlign=middle;resizable=0;points=[];labelBackgroundColor=default;fontSize=12;fontFamily=Helvetica;horizontal=1;fontColor=#008000;" parent="wiiBV4j6o2-u9heiSNuH-17" vertex="1" connectable="0">
          <mxGeometry x="-0.0174" y="2" relative="1" as="geometry">
            <mxPoint x="-127" y="-4" as="offset" />
          </mxGeometry>
        </mxCell>
        <mxCell id="wiiBV4j6o2-u9heiSNuH-19" value="" style="graphMlID=e2;endArrow=none;strokeColor=#000080;strokeWidth=1.0;startArrow=oval;startFill=0;endFill=0;fontFamily=Helvetica;fontSize=12;rounded=0;" parent="wiiBV4j6o2-u9heiSNuH-5" source="wiiBV4j6o2-u9heiSNuH-8" target="wiiBV4j6o2-u9heiSNuH-16" edge="1">
          <mxGeometry relative="1" as="geometry">
            <mxPoint x="80" y="425" as="sourcePoint" />
            <mxPoint x="-120" y="80" as="targetPoint" />
          </mxGeometry>
        </mxCell>
        <mxCell id="wiiBV4j6o2-u9heiSNuH-20" value="&lt;font style=&quot;font-size: 12px;&quot;&gt;&lt;span style=&quot;font-size: 12px;&quot;&gt;dcterms:created&lt;/span&gt;&lt;/font&gt;" style="text;html=1;align=center;verticalAlign=middle;resizable=0;points=[];labelBackgroundColor=default;fontFamily=Helvetica;fontSize=12;fontColor=#000080;" parent="wiiBV4j6o2-u9heiSNuH-19" vertex="1" connectable="0">
          <mxGeometry x="-0.0896" y="3" relative="1" as="geometry">
            <mxPoint x="7" y="-7" as="offset" />
          </mxGeometry>
        </mxCell>
        <mxCell id="wiiBV4j6o2-u9heiSNuH-21" value="" style="graphMlID=e0;rounded=0;endArrow=block;strokeColor=#000080;strokeWidth=1.0;startArrow=oval;startFill=1;endFill=1;fontSize=12;fontFamily=Helvetica;horizontal=1;verticalAlign=middle;edgeStyle=orthogonalEdgeStyle;" parent="wiiBV4j6o2-u9heiSNuH-1" source="wiiBV4j6o2-u9heiSNuH-2" target="wiiBV4j6o2-u9heiSNuH-8" edge="1">
          <mxGeometry relative="1" as="geometry">
            <mxPoint x="129" y="370" as="sourcePoint" />
            <mxPoint x="320" y="480" as="targetPoint" />
            <Array as="points">
              <mxPoint x="100" y="315" />
            </Array>
          </mxGeometry>
        </mxCell>
        <mxCell id="wiiBV4j6o2-u9heiSNuH-22" value="&lt;span style=&quot;color: rgb(0, 0, 128); font-size: 12px; background-color: rgb(248, 249, 250);&quot;&gt;pad:hasAssertion&lt;/span&gt;" style="text;html=1;align=center;verticalAlign=middle;resizable=0;points=[];labelBackgroundColor=#ffffff;fontSize=12;fontFamily=Helvetica;horizontal=1;" parent="wiiBV4j6o2-u9heiSNuH-21" vertex="1" connectable="0">
          <mxGeometry x="-0.0174" y="2" relative="1" as="geometry">
            <mxPoint x="87" y="2" as="offset" />
          </mxGeometry>
        </mxCell>
        <mxCell id="wiiBV4j6o2-u9heiSNuH-23" value="Prefixes" style="graphMlID=n0;shape=swimlane;startSize=20;fillColor=#b7b69e;strokeColor=#000000;strokeWidth=1.0;align=right;spacingRight=10;fontStyle=1;fontFamily=Helvetica;fontSize=12;fontColor=#008000;swimlaneFillColor=default;" parent="1" vertex="1">
          <mxGeometry x="-110.21" y="520" width="356.41645243734973" height="100" as="geometry" />
        </mxCell>
        <mxCell id="wiiBV4j6o2-u9heiSNuH-24" value="&lt;b style=&quot;font-size: 12px;&quot;&gt;pad:&lt;br style=&quot;font-size: 12px;&quot;&gt;scpo:&lt;br style=&quot;font-size: 12px;&quot;&gt;dcterms:&lt;br style=&quot;font-size: 12px;&quot;&gt;xsd:&lt;/b&gt;" style="text;html=1;align=right;verticalAlign=middle;resizable=0;points=[];autosize=1;fontFamily=Courier New;fontSize=12;fontColor=#008000;swimlaneFillColor=default;" parent="wiiBV4j6o2-u9heiSNuH-23" vertex="1">
          <mxGeometry x="-4.583547562650267" y="21.09953721049043" width="76" height="70" as="geometry" />
        </mxCell>
        <mxCell id="wiiBV4j6o2-u9heiSNuH-25" value="http://purl.org/job/pad/&lt;br style=&quot;font-size: 12px;&quot;&gt;http://purl.org/job/scpo/&lt;br style=&quot;font-size: 12px;&quot;&gt;http://purl.org/dc/terms/&lt;br style=&quot;font-size: 12px;&quot;&gt;http://www.w3.org/2001/XMLSchema#" style="text;html=1;align=left;verticalAlign=middle;resizable=0;points=[];autosize=1;fontFamily=Courier New;fontSize=12;fontColor=#008000;fillColor=none;swimlaneFillColor=default;" parent="wiiBV4j6o2-u9heiSNuH-23" vertex="1">
          <mxGeometry x="76.41645243734973" y="21.09953721049043" width="256" height="70" as="geometry" />
        </mxCell>
      </root>
    </mxGraphModel>
  </diagram>
  <diagram id="K5NgIKzj5P9477uyHWDv" name="PAD">
    <mxGraphModel dx="2234" dy="1276" grid="0" gridSize="10" guides="1" tooltips="1" connect="1" arrows="1" fold="1" page="0" pageScale="1" pageWidth="827" pageHeight="1169" math="0" shadow="0">
      <root>
        <mxCell id="0" />
        <mxCell id="1" parent="0" />
        <mxCell id="e-mlpwepsWCYZVDo-M-m-1" value="pad:DocInfo" style="swimlane;fontFamily=Helvetica;fontSize=12;rounded=1;gradientColor=none;swimlaneFillColor=#FFFFCC;opacity=50;" parent="1" vertex="1">
          <mxGeometry x="-440" y="-20" width="520" height="220" as="geometry">
            <mxRectangle y="60" width="110" height="30" as="alternateBounds" />
          </mxGeometry>
        </mxCell>
        <mxCell id="e-mlpwepsWCYZVDo-M-m-2" value="pad:PAD" style="graphMlID=n4;shape=rect;rounded=1;arcsize=30;fillColor=#ffff00;strokeColor=#000000;strokeWidth=1.0;fontSize=12;fontFamily=Helvetica;horizontal=1;verticalAlign=middle;" parent="e-mlpwepsWCYZVDo-M-m-1" vertex="1">
          <mxGeometry x="40.5" y="100" width="119" height="40" as="geometry" />
        </mxCell>
        <mxCell id="e-mlpwepsWCYZVDo-M-m-3" value="" style="graphMlID=e0;rounded=0;endArrow=block;strokeColor=#000080;strokeWidth=1.0;startArrow=oval;startFill=1;endFill=1;fontSize=12;fontFamily=Helvetica;horizontal=1;verticalAlign=middle;" parent="e-mlpwepsWCYZVDo-M-m-1" source="e-mlpwepsWCYZVDo-M-m-2" target="e-mlpwepsWCYZVDo-M-m-7" edge="1">
          <mxGeometry relative="1" as="geometry">
            <mxPoint x="449.5" y="450" as="sourcePoint" />
            <mxPoint x="340.5" y="320" as="targetPoint" />
          </mxGeometry>
        </mxCell>
        <mxCell id="e-mlpwepsWCYZVDo-M-m-4" value="&lt;span style=&quot;color: rgb(0, 0, 128); font-size: 12px; background-color: rgb(248, 249, 250);&quot;&gt;pad:hasProvenance&lt;/span&gt;" style="text;html=1;align=center;verticalAlign=middle;resizable=0;points=[];labelBackgroundColor=#ffffff;fontSize=12;fontFamily=Helvetica;horizontal=1;" parent="e-mlpwepsWCYZVDo-M-m-3" vertex="1" connectable="0">
          <mxGeometry x="-0.0174" y="2" relative="1" as="geometry">
            <mxPoint x="-1" y="-2" as="offset" />
          </mxGeometry>
        </mxCell>
        <mxCell id="e-mlpwepsWCYZVDo-M-m-5" value="" style="graphMlID=e0;rounded=0;endArrow=block;strokeColor=#000080;strokeWidth=1.0;startArrow=oval;startFill=1;endFill=1;fontSize=12;fontFamily=Helvetica;horizontal=1;verticalAlign=middle;" parent="e-mlpwepsWCYZVDo-M-m-1" source="e-mlpwepsWCYZVDo-M-m-2" target="e-mlpwepsWCYZVDo-M-m-8" edge="1">
          <mxGeometry relative="1" as="geometry">
            <mxPoint x="169.5" y="330" as="sourcePoint" />
            <mxPoint x="330.5" y="334.5769230769231" as="targetPoint" />
          </mxGeometry>
        </mxCell>
        <mxCell id="e-mlpwepsWCYZVDo-M-m-6" value="&lt;span style=&quot;color: rgb(0, 0, 128); font-size: 12px; background-color: rgb(248, 249, 250);&quot;&gt;pad:hasAssertion&lt;/span&gt;" style="text;html=1;align=center;verticalAlign=middle;resizable=0;points=[];labelBackgroundColor=#ffffff;fontSize=12;fontFamily=Helvetica;horizontal=1;" parent="e-mlpwepsWCYZVDo-M-m-5" vertex="1" connectable="0">
          <mxGeometry x="-0.0174" y="2" relative="1" as="geometry">
            <mxPoint x="-1" y="2" as="offset" />
          </mxGeometry>
        </mxCell>
        <mxCell id="e-mlpwepsWCYZVDo-M-m-7" value="pad:Provenance" style="graphMlID=n4;shape=rect;rounded=1;arcsize=30;fillColor=#ffff00;strokeColor=#000000;strokeWidth=1.0;fontSize=12;fontFamily=Helvetica;horizontal=1;verticalAlign=middle;" parent="e-mlpwepsWCYZVDo-M-m-1" vertex="1">
          <mxGeometry x="360.5" y="60" width="119" height="40" as="geometry" />
        </mxCell>
        <mxCell id="e-mlpwepsWCYZVDo-M-m-8" value="pad:Assertion" style="graphMlID=n4;shape=rect;rounded=1;arcsize=30;fillColor=#ffff00;strokeColor=#000000;strokeWidth=1.0;fontSize=12;fontFamily=Helvetica;horizontal=1;verticalAlign=middle;" parent="e-mlpwepsWCYZVDo-M-m-1" vertex="1">
          <mxGeometry x="360.5" y="140" width="119" height="40" as="geometry" />
        </mxCell>
        <mxCell id="e-mlpwepsWCYZVDo-M-m-9" value="pad:Provenance" style="swimlane;fontFamily=Helvetica;fontSize=12;rounded=1;gradientColor=none;swimlaneFillColor=#FFE6CC;opacity=50;" parent="1" vertex="1">
          <mxGeometry x="-440" y="240" width="520" height="300" as="geometry">
            <mxRectangle y="60" width="110" height="30" as="alternateBounds" />
          </mxGeometry>
        </mxCell>
        <mxCell id="e-mlpwepsWCYZVDo-M-m-10" value="pad:Assertion" style="graphMlID=n4;shape=rect;rounded=1;arcsize=30;fillColor=#ffff00;strokeColor=#000000;strokeWidth=1.0;fontSize=12;fontFamily=Helvetica;horizontal=1;verticalAlign=middle;" parent="e-mlpwepsWCYZVDo-M-m-9" vertex="1">
          <mxGeometry x="40" y="140" width="119" height="40" as="geometry" />
        </mxCell>
        <mxCell id="e-mlpwepsWCYZVDo-M-m-11" value="xsd:DateTime" style="graphMlID=n6;shape=parallelogram;fillColor=#ccffcc;strokeColor=#000000;strokeWidth=1.0;fontSize=12;fontFamily=Helvetica;horizontal=1;verticalAlign=middle;" parent="e-mlpwepsWCYZVDo-M-m-9" vertex="1">
          <mxGeometry x="360" y="140" width="120" height="40" as="geometry" />
        </mxCell>
        <mxCell id="e-mlpwepsWCYZVDo-M-m-12" value="dcterms:Agent" style="graphMlID=n4;shape=rect;rounded=1;arcsize=30;fillColor=#ffff00;strokeColor=#000000;strokeWidth=1.0;fontSize=12;fontFamily=Helvetica;horizontal=1;verticalAlign=middle;" parent="e-mlpwepsWCYZVDo-M-m-9" vertex="1">
          <mxGeometry x="360" y="220" width="120" height="40" as="geometry" />
        </mxCell>
        <mxCell id="e-mlpwepsWCYZVDo-M-m-13" value="" style="graphMlID=e0;rounded=0;endArrow=block;strokeColor=#000080;strokeWidth=1.0;startArrow=oval;startFill=1;endFill=1;fontSize=12;fontFamily=Helvetica;horizontal=1;verticalAlign=middle;" parent="e-mlpwepsWCYZVDo-M-m-9" source="e-mlpwepsWCYZVDo-M-m-10" target="e-mlpwepsWCYZVDo-M-m-12" edge="1">
          <mxGeometry relative="1" as="geometry">
            <mxPoint x="180" y="174.66666666666674" as="sourcePoint" />
            <mxPoint x="511" y="308" as="targetPoint" />
          </mxGeometry>
        </mxCell>
        <mxCell id="e-mlpwepsWCYZVDo-M-m-14" value="&lt;font color=&quot;#000080&quot;&gt;dcterms:creator&lt;/font&gt;" style="text;html=1;align=center;verticalAlign=middle;resizable=0;points=[];labelBackgroundColor=default;fontSize=12;fontFamily=Helvetica;horizontal=1;" parent="e-mlpwepsWCYZVDo-M-m-13" vertex="1" connectable="0">
          <mxGeometry x="-0.0174" y="2" relative="1" as="geometry">
            <mxPoint x="2" y="2" as="offset" />
          </mxGeometry>
        </mxCell>
        <mxCell id="e-mlpwepsWCYZVDo-M-m-15" value="" style="graphMlID=e2;rounded=0;endArrow=block;strokeColor=#008000;strokeWidth=1.0;startArrow=oval;startFill=0;endFill=0;fontFamily=Helvetica;fontSize=12;" parent="e-mlpwepsWCYZVDo-M-m-9" source="e-mlpwepsWCYZVDo-M-m-10" target="e-mlpwepsWCYZVDo-M-m-11" edge="1">
          <mxGeometry relative="1" as="geometry">
            <mxPoint x="240" y="310" as="sourcePoint" />
            <mxPoint x="516.8107910156248" y="310.18034262995354" as="targetPoint" />
          </mxGeometry>
        </mxCell>
        <mxCell id="e-mlpwepsWCYZVDo-M-m-16" value="&lt;font color=&quot;#008000&quot; style=&quot;font-size: 12px;&quot;&gt;&lt;span style=&quot;font-size: 12px;&quot;&gt;dcterms:created&lt;/span&gt;&lt;/font&gt;" style="text;html=1;align=center;verticalAlign=middle;resizable=0;points=[];labelBackgroundColor=default;fontFamily=Helvetica;fontSize=12;" parent="e-mlpwepsWCYZVDo-M-m-15" vertex="1" connectable="0">
          <mxGeometry x="-0.0896" y="3" relative="1" as="geometry">
            <mxPoint x="11" y="2" as="offset" />
          </mxGeometry>
        </mxCell>
        <mxCell id="e-mlpwepsWCYZVDo-M-m-17" value="xsd:IRI" style="graphMlID=n6;shape=parallelogram;fillColor=#ccffcc;strokeColor=#000000;strokeWidth=1.0;fontSize=12;fontFamily=Helvetica;horizontal=1;verticalAlign=middle;" parent="e-mlpwepsWCYZVDo-M-m-9" vertex="1">
          <mxGeometry x="360" y="60" width="120" height="40" as="geometry" />
        </mxCell>
        <mxCell id="e-mlpwepsWCYZVDo-M-m-18" value="" style="graphMlID=e2;rounded=0;endArrow=block;strokeColor=#008000;strokeWidth=1.0;startArrow=oval;startFill=0;endFill=0;fontFamily=Helvetica;fontSize=12;" parent="e-mlpwepsWCYZVDo-M-m-9" source="e-mlpwepsWCYZVDo-M-m-10" target="e-mlpwepsWCYZVDo-M-m-17" edge="1">
          <mxGeometry relative="1" as="geometry">
            <mxPoint x="340" y="-120" as="sourcePoint" />
            <mxPoint x="697.8107910156248" y="110.18034262995354" as="targetPoint" />
          </mxGeometry>
        </mxCell>
        <mxCell id="e-mlpwepsWCYZVDo-M-m-19" value="&lt;font color=&quot;#008000&quot; style=&quot;font-size: 12px;&quot;&gt;&lt;span style=&quot;font-size: 12px;&quot;&gt;dcterms:license&lt;/span&gt;&lt;/font&gt;" style="text;html=1;align=center;verticalAlign=middle;resizable=0;points=[];labelBackgroundColor=default;fontFamily=Helvetica;fontSize=12;" parent="e-mlpwepsWCYZVDo-M-m-18" vertex="1" connectable="0">
          <mxGeometry x="-0.0896" y="3" relative="1" as="geometry">
            <mxPoint x="11" y="1" as="offset" />
          </mxGeometry>
        </mxCell>
        <mxCell id="e-mlpwepsWCYZVDo-M-m-20" value="pad:Assertion" style="swimlane;fontFamily=Helvetica;fontSize=12;rounded=1;gradientColor=none;swimlaneFillColor=#CCE5FF;opacity=50;" parent="1" vertex="1">
          <mxGeometry x="-440" y="580" width="520" height="220" as="geometry">
            <mxRectangle x="80" y="180" width="110" height="30" as="alternateBounds" />
          </mxGeometry>
        </mxCell>
        <mxCell id="e-mlpwepsWCYZVDo-M-m-21" value="scpo:Platform" style="graphMlID=n4;shape=rect;rounded=1;arcsize=30;fillColor=#ffff00;strokeColor=#000000;strokeWidth=1.0" parent="e-mlpwepsWCYZVDo-M-m-20" vertex="1">
          <mxGeometry x="40" y="100" width="120" height="40" as="geometry" />
        </mxCell>
        <mxCell id="e-mlpwepsWCYZVDo-M-m-22" value="xsd:Literal" style="graphMlID=n6;shape=parallelogram;fillColor=#ccffcc;strokeColor=#000000;strokeWidth=1.0" parent="e-mlpwepsWCYZVDo-M-m-20" vertex="1">
          <mxGeometry x="360" y="100" width="120" height="40" as="geometry" />
        </mxCell>
        <mxCell id="e-mlpwepsWCYZVDo-M-m-23" value="" style="graphMlID=e2;rounded=0;endArrow=block;strokeColor=#008000;strokeWidth=1.0;startArrow=oval;startFill=0;endFill=0;fontFamily=Helvetica;fontSize=12;fontColor=#97D077;" parent="e-mlpwepsWCYZVDo-M-m-20" source="e-mlpwepsWCYZVDo-M-m-21" target="e-mlpwepsWCYZVDo-M-m-22" edge="1">
          <mxGeometry relative="1" as="geometry">
            <mxPoint x="250" y="360" as="sourcePoint" />
            <mxPoint x="526.8107910156248" y="360.18034262995354" as="targetPoint" />
          </mxGeometry>
        </mxCell>
        <mxCell id="e-mlpwepsWCYZVDo-M-m-24" value="&lt;span style=&quot;color: rgb(0, 128, 0); font-size: 12px; background-color: rgb(248, 249, 250);&quot;&gt;dcterms:identifier&lt;/span&gt;" style="text;html=1;align=center;verticalAlign=middle;resizable=0;points=[];labelBackgroundColor=#ffffff;fontFamily=Helvetica;fontSize=12;fontColor=#97D077;" parent="e-mlpwepsWCYZVDo-M-m-23" vertex="1" connectable="0">
          <mxGeometry x="-0.0896" y="3" relative="1" as="geometry">
            <mxPoint as="offset" />
          </mxGeometry>
        </mxCell>
        <mxCell id="fAKpfaWEw5Kmqk1C18Ev-1" value="Prefixes" style="graphMlID=n0;shape=swimlane;startSize=20;fillColor=#b7b69e;strokeColor=#000000;strokeWidth=1.0;align=right;spacingRight=10;fontStyle=1;fontFamily=Helvetica;fontSize=12;fontColor=#008000;swimlaneFillColor=default;" vertex="1" parent="1">
          <mxGeometry x="-358.21" y="846" width="356.41645243734973" height="100" as="geometry" />
        </mxCell>
        <mxCell id="fAKpfaWEw5Kmqk1C18Ev-2" value="&lt;b style=&quot;font-size: 12px;&quot;&gt;pad:&lt;br style=&quot;font-size: 12px;&quot;&gt;scpo:&lt;br style=&quot;font-size: 12px;&quot;&gt;dcterms:&lt;br style=&quot;font-size: 12px;&quot;&gt;xsd:&lt;/b&gt;" style="text;html=1;align=right;verticalAlign=middle;resizable=0;points=[];autosize=1;fontFamily=Courier New;fontSize=12;fontColor=#008000;swimlaneFillColor=default;" vertex="1" parent="fAKpfaWEw5Kmqk1C18Ev-1">
          <mxGeometry x="-4.583547562650267" y="21.09953721049043" width="76" height="70" as="geometry" />
        </mxCell>
        <mxCell id="fAKpfaWEw5Kmqk1C18Ev-3" value="http://purl.org/job/pad/&lt;br style=&quot;font-size: 12px;&quot;&gt;http://purl.org/job/scpo/&lt;br style=&quot;font-size: 12px;&quot;&gt;http://purl.org/dc/terms/&lt;br style=&quot;font-size: 12px;&quot;&gt;http://www.w3.org/2001/XMLSchema#" style="text;html=1;align=left;verticalAlign=middle;resizable=0;points=[];autosize=1;fontFamily=Courier New;fontSize=12;fontColor=#008000;fillColor=none;swimlaneFillColor=default;" vertex="1" parent="fAKpfaWEw5Kmqk1C18Ev-1">
          <mxGeometry x="76.41645243734973" y="21.09953721049043" width="256" height="70" as="geometry" />
        </mxCell>
      </root>
    </mxGraphModel>
  </diagram>
</mxfile>
